#!OML:ASF F:\VICON\USERDATA\INSTALL\rory3\rory3.ASF
:FULLY-SPECIFIED
:DEGREES
94
root 0.010240298315545293 17.600338852115208 37.5177226219503 -1.4872359904437225 -4.8768862705386296 -7.175219213088749
lfemur -25.363969546415376 -6.915601486446515 -9.145256883219414
ltibia 34.10207815232843
lfoot -5.860912747304374 -1.4766804847839512
ltoes -4.544466584016284
rfemur -0.6092899166563086 6.697169054843214 29.907184365963158
rtibia 45.50137540016675
rfoot -7.632422621091464 -4.3629372444441445
rtoes 4.060586427340639
lowerback 9.550678508930794 1.6314606856818472 4.311048746390624
upperback 0.06130625687412608 2.921999877410125 1.7719934733361589
thorax -5.020743656170028 1.2366130418330943 -0.8143247722421134
lowerneck -15.968493351922913 -2.8111495863483698 -1.8228722505834472
upperneck 20.88202354933138 -3.4061270981720995 0.7759070662159122
head 9.306102928439618 -1.7726543994840824 0.12989531833762158
lclavicle -1.3860207461538632e-15 -1.842390907833122e-15
lhumerus -37.15416710641623 11.600330378891634 78.56897448591506
lradius 22.770713047013686
lwrist 1.848197274891175
lhand -26.831279078791525 24.657113177957314
lfingers 7.125019999999999
lthumb -0.44498013287331395 54.45763496475892
rclavicle -1.3880244278061617e-15 -1.84425276717624e-15
rhumerus -22.21198636612483 -14.92828833887107 -81.74676392593278
rradius 25.675923928565037
rwrist 2.370343903275144
rhand -18.441311688489545 22.606924766580747
rfingers 7.125019999999999
rthumb 7.900390097981253 -7.142406522865056
95
root 0.0574421846176979 17.587918132797927 38.21885362122403 -1.9268899130743364 -4.74661768245465 -6.672371825592759
lfemur -25.872738137744747 -4.840168639869221 -11.057636904119192
ltibia 34.22076619191844
lfoot -6.421518221063503 -1.8783834590063024
ltoes -4.822843291927202
rfemur -0.9073944557139679 6.438040267256685 29.073938688864963
rtibia 45.22249557156278
rfoot -7.440447097356724 -4.516519097963423
rtoes 4.586947225769717
lowerback 9.599406537853524 1.681696083935526 4.084682317933349
upperback 0.08465122198521596 2.9119109717643297 1.6358306295132716
thorax -5.039772863941257 1.225308448070903 -0.6816796079492278
lowerneck -15.913061599133131 -2.8119237344345565 -1.8164308780987362
upperneck 20.85280205899869 -3.46974236497241 0.7827082433955522
head 9.25974898578169 -1.791725755561504 0.10382021106618028
lclavicle -1.3860207461538632e-15 -1.842390907833122e-15
lhumerus -37.49195733831394 11.890567930975369 78.18222909183312
lradius 23.215940252367453
lwrist 2.0808271011409905
lhand -26.88211404845332 24.549987749835573
lfingers 7.125019999999999
lthumb -0.5727106127732471 54.19945846031919
rclavicle -1.3880244278061617e-15 -1.8442527671762395e-15
rhumerus -22.60571714053161 -15.64834185224362 -81.62243354889516
rradius 25.896921342332995
rwrist 2.33234244041597
rhand -18.452463967478042 22.587639599969236
rfingers 7.125019999999999
rthumb 7.904724787339307 -7.127756530614687
96
root 0.1025996771952678 17.594373548271488 38.69581676453959 -2.5364374398603076 -4.560087842050939 -6.039042130852446
lfemur -26.294354783582122 -3.8411556968378253 -13.138915864915672
ltibia 34.5836892251768
lfoot -7.456387306989069 -2.0012244517619657
ltoes -4.707209318648808
rfemur -1.5894910941667515 6.089203523501858 28.231015215798653
rtibia 44.51499976581135
rfoot -6.885209103314737 -4.577429856764132
rtoes 4.903741414731826
lowerback 9.621515584078299 1.604502040637598 3.457059914673867
upperback 0.11121769368680423 2.752144477713878 1.4478711504937178
thorax -5.068698686450765 1.1970626063156746 -0.5098647380256445
lowerneck -15.875128680407576 -2.81416121160776 -1.8292915079541192
upperneck 20.83648976436941 -3.5328850761394204 0.801491860761916
head 9.260634114745432 -1.7892797775276947 0.10952563499024992
lclavicle -1.3860207461538632e-15 -1.842390907833122e-15
lhumerus -37.61874796275026 11.752172851750117 78.07854571012973
lradius 23.843259547965175
lwrist 2.275758277424735
lhand -26.76984494163872 24.74180435432218
lfingers 7.125019999999999
lthumb -0.43611701791953583 54.447441099534274
rclavicle -1.3880244278061617e-15 -1.8442527671762395e-15
rhumerus -23.187477809078405 -16.40245833379999 -81.26781836708322
rradius 26.004149019561957
rwrist 2.4759001098645923
rhand -18.461568517345743 22.55929663074293
rfingers 7.125019999999999
rthumb 7.908210250990184 -7.095963644502812
97
root 0.15045541722471534 17.619970458102962 39.30974284749218 -3.1647003470679915 -4.3651464031771665 -5.2136915295060025
lfemur -25.096861385137828 -3.3319657078768037 -14.939179068241042
ltibia 34.57562762441067
lfoot -7.4349734550288815 -1.4982278509277422
ltoes -4.658819171564572
rfemur -2.457553213550428 5.724391644853098 27.42130388087932
rtibia 43.225995817835596
rfoot -6.553988326168099 -4.718648513199534
rtoes 4.9217005469056625
lowerback 9.752663904371552 1.5867006390331237 3.015499541167678
upperback 0.16805140950060313 2.6077902334769876 1.2864360897339109
thorax -5.091467719829902 1.1631224270761784 -0.27793334519904955
lowerneck -15.81750737098693 -2.8021664721801627 -1.8320575267755415
upperneck 20.89508420164955 -3.544875261297356 0.8630472379513618
head 9.241442382554267 -1.7931846005239385 0.09610695624753632
lclavicle -1.3860207461538632e-15 -1.842390907833122e-15
lhumerus -37.494358732762784 11.146587139929217 78.24912650110504
lradius 24.53369815875514
lwrist 2.722803960207288
lhand -26.859422649665998 24.562494466724303
lfingers 7.125019999999999
lthumb -0.5670673023852253 54.183534083333726
rclavicle -1.3880244278061617e-15 -1.8442527671762395e-15
rhumerus -23.99910997281768 -17.3228718463394 -80.88613787419386
rradius 26.026330618431558
rwrist 2.6945525768198473
rhand -18.442082361967405 22.574729569501972
rfingers 7.125019999999999
rthumb 7.901906971783639 -7.083149090641704
98
root 0.19891379069044451 17.659514293529117 40.151342752014564 -3.7032719115648396 -4.178991529795855 -4.236717383477683
lfemur -23.33260885896467 -2.4745787074378667 -16.87432529100164
ltibia 34.47734648728132
lfoot -7.795985991649664 -1.6545837535561985
ltoes -5.415577450749052
rfemur -3.9788840242767805 5.18555827026316 26.401418885348157
rtibia 41.68136012520888
rfoot -6.446540369833667 -4.9593967279876585
rtoes 4.973970710934793
lowerback 9.861362701650672 1.479033872026267 2.3629417583737036
upperback 0.23129544061230994 2.3768346098590367 1.1214290168746381
thorax -5.132205686722533 1.089124199110829 -0.09116509387472616
lowerneck -15.83622176276308 -2.815145238540451 -1.8762393641976365
upperneck 20.938087127771297 -3.552067248832425 0.8866742430866246
head 9.269223852975626 -1.782574420097671 0.10676031847631068
lclavicle -1.3860207461538632e-15 -1.842390907833122e-15
lhumerus -36.98002119868489 10.259429832645237 78.63729313837706
lradius 25.103268879381726
lwrist 2.8968174580742168
lhand -26.758712386326508 24.748680797921402
lfingers 7.125019999999999
lthumb -0.43259485408239573 54.436170276507546
rclavicle -1.3880244278061617e-15 -1.8442527671762395e-15
rhumerus -24.822127469847494 -18.23729149470327 -80.49982991300638
rradius 25.96753474447051
rwrist 2.8271052035542596
rhand -18.457624061903253 22.551289674842664
rfingers 7.125019999999999
rthumb 7.893137947093486 -7.09002561897757
99
root 0.24222116539727195 17.704994178269356 41.04158293647351 -4.113209959288302 -3.9641655739820747 -3.2495416433030844
lfemur -20.78695748852838 -1.945833918907034 -19.213386122759527
ltibia 34.30081973177152
lfoot -7.742308668559257 -1.6013321943600771
ltoes -5.63633687789021
rfemur -5.453352032431322 4.725430642605396 25.670237051742546
rtibia 40.392002349231355
rfoot -6.019322211882945 -5.039066688763603
rtoes 4.792506356998862
lowerback 10.052333683044482 1.4373450447769085 1.9814179137201753
upperback 0.3211346464636596 2.139154255201691 0.9992956355238674
thorax -5.1632073642696215 0.9993985699872527 0.14266887243915471
lowerneck -15.872041372526141 -2.8277094237109663 -1.9237556650992114
upperneck 20.929149424855453 -3.569429026529667 0.893970030394047
head 9.246135289191887 -1.792098308900055 0.08930192501691411
lclavicle -1.3860207461538632e-15 -1.842390907833122e-15
lhumerus -36.09585722196173 9.163224214333468 79.12250711628606
lradius 25.524019534042804
lwrist 3.3496837756423217
lhand -26.85888542172346 24.56784668487692
lfingers 7.125019999999999
lthumb -0.5454753347222467 54.21958190049322
rclavicle -1.3880244278061617e-15 -1.8442527671762395e-15
rhumerus -25.70863343218525 -19.26830484214531 -80.2346167417621
rradius 25.890729477661914
rwrist 3.1909475957095053
rhand -18.496102531534493 22.498321322313025
rfingers 7.125019999999999
rthumb 7.88788673573811 -7.109131486919591
100
root 0.2740344787835144 17.746947145259885 41.74988041497345 -4.406180445484486 -3.6686839410907455 -2.421689154286659
lfemur -17.77037667999654 -1.9635815524592914 -21.194994662175702
ltibia 34.112291693331386
lfoot -8.075166639414423 -1.8669880780191264
ltoes -5.565667301072191
rfemur -7.900236246940675 4.128113837221019 24.6177494780331
rtibia 39.360193529690136
rfoot -5.6852199243640715 -5.03596982100829
rtoes 4.863962204955463
lowerback 10.174076046348576 1.2931531710453898 1.4274337092518634
upperback 0.4226623529039446 1.887250825631992 0.934179290589506
thorax -5.1770593662082565 0.8998810038512315 0.4317307790373517
lowerneck -15.892599190610408 -2.831687215466666 -1.9675965783829146
upperneck 20.93760252066521 -3.571444227743635 0.9300614594675246
head 9.27350776573645 -1.7853257134379943 0.10457649631082311
lclavicle -1.3860207461538632e-15 -1.842390907833122e-15
lhumerus -34.89682738686442 7.900303137973173 79.622562374479
lradius 25.579254089960862
lwrist 3.6677187521052335
lhand -26.819551484093605 24.662781026438736
lfingers 7.125019999999999
lthumb -0.4606236351493715 54.4012776829372
rclavicle -1.3880244278061617e-15 -1.8442527671762395e-15
rhumerus -26.587934664770675 -20.266575595832492 -79.97659157249481
rradius 25.863373398666965
rwrist 3.725807069906098
rhand -18.52505616688548 22.462394711247295
rfingers 7.125019999999999
rthumb 7.871296374801729 -7.155280908809316
101
root 0.2909980222086681 17.776413293095164 42.17343213230555 -4.604242092691587 -3.275155243189567 -1.8279629366520367
lfemur -14.979696957911933 -2.098872641692128 -22.393938717205632
ltibia 33.99090869312682
lfoot -8.427678448510054 -2.1733705928821054
ltoes -6.424244348806208
rfemur -10.305300927665705 3.6512094448832055 23.822127176592307
rtibia 38.69945026713007
rfoot -5.527674217696148 -4.990700132881909
rtoes 4.947318634455937
lowerback 10.314718568911408 1.1595028605051343 0.9996752133085207
upperback 0.5201640391821933 1.614961640011874 0.9172117880073622
thorax -5.187318735967402 0.7711597942920938 0.6821212771414267
lowerneck -15.891460414224369 -2.821386295208164 -1.980311513007261
upperneck 21.005989359280814 -3.5288745772216497 0.9909704080013887
head 9.264795096034698 -1.7932421509662329 0.101864716663426
lclavicle -1.3860207461538632e-15 -1.842390907833122e-15
lhumerus -33.41454609786669 6.555483460461543 80.10824395283463
lradius 25.618320215940948
lwrist 4.1544816543438134
lhand -26.876872356635975 24.54930116477808
lfingers 7.125019999999999
lthumb -0.6473313329717203 54.071168129219245
rclavicle -1.3880244278061617e-15 -1.8442527671762395e-15
rhumerus -27.574598772535484 -21.268265044277932 -79.76588817640312
rradius 25.88913767350908
rwrist 4.334332837564893
rhand -18.517560852994414 22.48294310829309
rfingers 7.125019999999999
rthumb 7.901197658591143 -7.1242641413211265
